<svg width="127" height="54" viewBox="0 0 127 54" fill="none" xmlns="http://www.w3.org/2000/svg">
<path d="M17.14 18.0821V32.1221H13.72V23.7021L10.58 32.1221H7.82L4.66 23.6821V32.1221H1.24V18.0821H5.28L9.22 27.8021L13.12 18.0821H17.14ZM24.6794 32.2821C23.586 32.2821 22.5994 32.0487 21.7194 31.5821C20.8527 31.1154 20.166 30.4487 19.6594 29.5821C19.166 28.7154 18.9194 27.7021 18.9194 26.5421C18.9194 25.3954 19.1727 24.3887 19.6794 23.5221C20.186 22.6421 20.8794 21.9687 21.7594 21.5021C22.6394 21.0354 23.626 20.8021 24.7194 20.8021C25.8127 20.8021 26.7994 21.0354 27.6794 21.5021C28.5594 21.9687 29.2527 22.6421 29.7594 23.5221C30.266 24.3887 30.5194 25.3954 30.5194 26.5421C30.5194 27.6887 30.2594 28.7021 29.7394 29.5821C29.2327 30.4487 28.5327 31.1154 27.6394 31.5821C26.7594 32.0487 25.7727 32.2821 24.6794 32.2821ZM24.6794 29.3221C25.3327 29.3221 25.886 29.0821 26.3394 28.6021C26.806 28.1221 27.0394 27.4354 27.0394 26.5421C27.0394 25.6487 26.8127 24.9621 26.3594 24.4821C25.9194 24.0021 25.3727 23.7621 24.7194 23.7621C24.0527 23.7621 23.4994 24.0021 23.0594 24.4821C22.6194 24.9487 22.3994 25.6354 22.3994 26.5421C22.3994 27.4354 22.6127 28.1221 23.0394 28.6021C23.4794 29.0821 24.026 29.3221 24.6794 29.3221ZM39.1338 20.8421C40.4404 20.8421 41.4804 21.2687 42.2538 22.1221C43.0404 22.9621 43.4338 24.1221 43.4338 25.6021V32.1221H40.0338V26.0621C40.0338 25.3154 39.8404 24.7354 39.4538 24.3221C39.0671 23.9087 38.5471 23.7021 37.8938 23.7021C37.2404 23.7021 36.7204 23.9087 36.3338 24.3221C35.9471 24.7354 35.7538 25.3154 35.7538 26.0621V32.1221H32.3338V20.9621H35.7538V22.4421C36.1004 21.9487 36.5671 21.5621 37.1538 21.2821C37.7404 20.9887 38.4004 20.8421 39.1338 20.8421ZM56.3303 26.3621C56.3303 26.6821 56.3103 27.0154 56.2703 27.3621H48.5303C48.5836 28.0554 48.8036 28.5887 49.1903 28.9621C49.5903 29.3221 50.077 29.5021 50.6503 29.5021C51.5036 29.5021 52.097 29.1421 52.4303 28.4221H56.0703C55.8836 29.1554 55.5436 29.8154 55.0503 30.4021C54.5703 30.9887 53.9636 31.4487 53.2303 31.7821C52.497 32.1154 51.677 32.2821 50.7703 32.2821C49.677 32.2821 48.7036 32.0487 47.8503 31.5821C46.997 31.1154 46.3303 30.4487 45.8503 29.5821C45.3703 28.7154 45.1303 27.7021 45.1303 26.5421C45.1303 25.3821 45.3636 24.3687 45.8303 23.5021C46.3103 22.6354 46.977 21.9687 47.8303 21.5021C48.6836 21.0354 49.6636 20.8021 50.7703 20.8021C51.8503 20.8021 52.8103 21.0287 53.6503 21.4821C54.4903 21.9354 55.1436 22.5821 55.6103 23.4221C56.0903 24.2621 56.3303 25.2421 56.3303 26.3621ZM52.8303 25.4621C52.8303 24.8754 52.6303 24.4087 52.2303 24.0621C51.8303 23.7154 51.3303 23.5421 50.7303 23.5421C50.157 23.5421 49.6703 23.7087 49.2703 24.0421C48.8836 24.3754 48.6436 24.8487 48.5503 25.4621H52.8303ZM64.3545 29.2221V32.1221H62.6145C61.3745 32.1221 60.4079 31.8221 59.7145 31.2221C59.0212 30.6087 58.6745 29.6154 58.6745 28.2421V23.8021H57.3145V20.9621H58.6745V18.2421H62.0945V20.9621H64.3345V23.8021H62.0945V28.2821C62.0945 28.6154 62.1745 28.8554 62.3345 29.0021C62.4945 29.1487 62.7612 29.2221 63.1345 29.2221H64.3545ZM67.9795 19.8021C67.3795 19.8021 66.8862 19.6287 66.4995 19.2821C66.1262 18.9221 65.9395 18.4821 65.9395 17.9621C65.9395 17.4287 66.1262 16.9887 66.4995 16.6421C66.8862 16.2821 67.3795 16.1021 67.9795 16.1021C68.5662 16.1021 69.0462 16.2821 69.4195 16.6421C69.8062 16.9887 69.9995 17.4287 69.9995 17.9621C69.9995 18.4821 69.8062 18.9221 69.4195 19.2821C69.0462 19.6287 68.5662 19.8021 67.9795 19.8021ZM69.6795 20.9621V32.1221H66.2595V20.9621H69.6795ZM78.758 32.1221L76.618 29.0221L74.818 32.1221H71.118L74.798 26.4221L71.018 20.9621H74.858L76.998 24.0421L78.798 20.9621H82.498L78.758 26.5821L82.598 32.1221H78.758ZM102.656 29.6421H97.4158L96.5758 32.1221H92.9958L98.0758 18.0821H102.036L107.116 32.1221H103.496L102.656 29.6421ZM101.776 27.0021L100.036 21.8621L98.3158 27.0021H101.776ZM112.082 18.0821V32.1221H108.662V18.0821H112.082Z" fill="#232323"/>
<path d="M117.7 0C120.167 0 122.532 0.965771 124.276 2.68485C126.02 4.40394 127 6.73552 127 9.16667V12.8333C127 13.3196 126.804 13.7859 126.455 14.1297C126.106 14.4735 125.633 14.6667 125.14 14.6667C124.647 14.6667 124.174 14.4735 123.825 14.1297C123.476 13.7859 123.28 13.3196 123.28 12.8333V9.16667C123.28 7.70798 122.692 6.30903 121.646 5.27758C120.6 4.24613 119.18 3.66667 117.7 3.66667H113.981C113.487 3.66667 113.014 3.47351 112.666 3.12969C112.317 2.78588 112.121 2.31956 112.121 1.83333C112.121 1.3471 112.317 0.880788 112.666 0.536971C113.014 0.193154 113.487 0 113.981 0H117.7ZM81.2995 0C78.8331 0 76.4678 0.965771 74.7238 2.68485C72.9798 4.40394 72 6.73552 72 9.16667V12.8333C72 13.3196 72.196 13.7859 72.5448 14.1297C72.8936 14.4735 73.3666 14.6667 73.8599 14.6667C74.3532 14.6667 74.8263 14.4735 75.1751 14.1297C75.5239 13.7859 75.7198 13.3196 75.7198 12.8333V9.16667C75.7198 7.70798 76.3077 6.30903 77.3541 5.27758C78.4005 4.24613 79.8197 3.66667 81.2995 3.66667H85.0193C85.5126 3.66667 85.9857 3.47351 86.3345 3.12969C86.6833 2.78588 86.8792 2.31956 86.8792 1.83333C86.8792 1.3471 86.6833 0.880788 86.3345 0.536971C85.9857 0.193155 85.5126 0 85.0193 0H81.2995ZM117.7 54C120.167 54 122.532 53.0342 124.276 51.3151C126.02 49.5961 127 47.2645 127 44.8333V41.1667C127 40.6804 126.804 40.2141 126.455 39.8703C126.106 39.5265 125.633 39.3333 125.14 39.3333C124.647 39.3333 124.174 39.5265 123.825 39.8703C123.476 40.2141 123.28 40.6804 123.28 41.1667V44.8333C123.28 46.292 122.692 47.691 121.646 48.7224C120.6 49.7539 119.18 50.3333 117.7 50.3333H113.981C113.487 50.3333 113.014 50.5265 112.666 50.8703C112.317 51.2141 112.121 51.6804 112.121 52.1667C112.121 52.6529 112.317 53.1192 112.666 53.463C113.014 53.8068 113.487 54 113.981 54H117.7ZM72 42.8333C72 45.2645 72.9798 47.5961 74.7238 49.3151C76.4678 51.0342 78.8331 52 81.2995 52H85.0193C85.5126 52 85.9857 51.8068 86.3345 51.463C86.6833 51.1192 86.8792 50.6529 86.8792 50.1667C86.8792 49.6804 86.6833 49.2141 86.3345 48.8703C85.9857 48.5265 85.5126 48.3333 85.0193 48.3333H81.2995C79.8197 48.3333 78.4005 47.7539 77.3541 46.7224C76.3077 45.691 75.7198 44.292 75.7198 42.8333V39.1667C75.7198 38.6804 75.5239 38.2141 75.1751 37.8703C74.8263 37.5265 74.3532 37.3333 73.8599 37.3333C73.3666 37.3333 72.8936 37.5265 72.5448 37.8703C72.196 38.2141 72 38.6804 72 39.1667V42.8333ZM87.7536 32.4643C88.4935 32.4643 89.2031 32.1746 89.7263 31.6588C90.2495 31.1431 90.5435 30.4436 90.5435 29.7143C90.5435 28.9849 90.2495 28.2855 89.7263 27.7697C89.2031 27.254 88.4935 26.9643 87.7536 26.9643C87.0137 26.9643 86.3041 27.254 85.7809 27.7697C85.2577 28.2855 84.9638 28.9849 84.9638 29.7143C84.9638 30.4436 85.2577 31.1431 85.7809 31.6588C86.3041 32.1746 87.0137 32.4643 87.7536 32.4643Z" fill="#D4EB45"/>
</svg>
